<svg xmlns="http://www.w3.org/2000/svg" viewBox="0 0 370 430">
  <g data-name="Group 75" transform="translate(-135 -1272)">
    <g data-name="Group 71">
      <circle cx="185" cy="185" r="185" fill="#76bb33" data-name="Ellipse 1" transform="translate(135 1332)"/>
      <path fill="#ffa715" d="M320 1517v-185c102.173 0 185 82.827 185 185a185.075 185.075 0 0 1-129.948 176.671z" data-name="Intersection 1"/>
      <path fill="#cfd3d6" d="M220.942 1360.727A184.153 184.153 0 0 1 320 1332v185z" data-name="Intersection 2"/>
      <path fill="#ffde75" d="M320 1332q7.081 0 14.027.524L320 1513z" data-name="Intersection 3"/>
      <path fill="#1f6450" d="M208.952 1369.023q5.86-4.4 12.063-8.341L320 1517z" data-name="Intersection 4"/>
    </g>
    <text data-name="1%" font-family="SeroPro" font-size="14" font-weight="700" letter-spacing=".02em" transform="translate(320 1297)">
      <tspan x="0" y="0">1%</tspan>
    </text>
    <text data-name="1%" font-family="SeroPro" font-size="14" font-weight="700" letter-spacing=".02em" transform="translate(154 1336)">
      <tspan x="0" y="0">1%</tspan>
    </text>
    <text fill="#fff" font-family="SeroPro, Sero Pro" font-size="14" letter-spacing=".02em" transform="translate(211 1574)">
      <tspan x="0" y="0">ОФЗ</tspan>
    </text>
    <text fill="#fff" data-name="44%" font-family="SeroPro" font-size="16" font-weight="700" letter-spacing=".02em" transform="translate(211 1551)">
      <tspan x="0" y="0">44%</tspan>
    </text>
    <text data-name="Другие направления" font-family="SeroPro, Sero Pro" font-size="14" letter-spacing=".02em" transform="translate(217 1307)">
      <tspan x="0" y="0">Другие</tspan><tspan x="0" y="18">направления</tspan>
    </text>
    <text font-family="SeroPro, Sero Pro" font-size="14" letter-spacing=".02em" transform="translate(320 1319)">
      <tspan x="0" y="0">Акции</tspan>
    </text>
    <text font-family="SeroPro, Sero Pro" font-size="14" letter-spacing=".02em" transform="translate(154 1358)">
      <tspan x="0" y="0">Депозит</tspan>
    </text>
    <text fill="#3d4348" data-name="8%" font-family="SeroPro" font-size="16" font-weight="700" letter-spacing=".02em" transform="translate(217 1284)">
      <tspan x="0" y="0">8%</tspan>
    </text>
    <text fill="#fff" data-name="46%" font-family="SeroPro" font-size="16" font-weight="700" letter-spacing=".02em" transform="translate(355 1495)">
      <tspan x="0" y="0">46%</tspan>
    </text>
    <text fill="#fff" data-name="Корпоративные облигации" font-family="SeroPro, Sero Pro" font-size="14" letter-spacing=".02em" transform="translate(355 1518)">
      <tspan x="0" y="0">Корпоративные</tspan><tspan x="0" y="18">облигации</tspan>
    </text>
    <circle cx="6" cy="6" r="6" fill="#76bb33" data-name="Ellipse 11" transform="translate(266 1511)"/>
  </g>
</svg>