<svg xmlns="http://www.w3.org/2000/svg" width="64" height="64" viewBox="0 0 64 64">
    <defs>
        <style>
            .cls-1{fill:#76bb33}.cls-2{fill:none}.cls-3{fill:#fff}
        </style>
    </defs>
    <g id="Group_27" data-name="Group 27" transform="translate(-235 -869)">
        <circle id="Ellipse_3" cx="32" cy="32" r="32" class="cls-1" data-name="Ellipse 3" transform="translate(235 869)"/>
        <g id="Group_36" data-name="Group 36" transform="translate(251 885)">
            <path id="Rectangle_6" d="M0 0h32v32H0z" class="cls-2" data-name="Rectangle 6"/>
            <g id="Group_45" data-name="Group 45" transform="translate(1.6)">
                <path id="Path_15" d="M1393.386 533.294l-4-4a.8.8 0 0 0-1.134 0l-4 4a.8.8 0 0 0 1.132 1.131l2.634-2.634v10.869a.8.8 0 1 0 1.6 0v-10.87l2.634 2.634a.8.8 0 0 0 1.132-1.131z" class="cls-3" data-name="Path 15" transform="translate(-1365.058 -511.8)"/>
                <path id="Path_16" d="M1378.417 519.845a2.028 2.028 0 0 0 .26-.035 1.93 1.93 0 0 0 1.5-1.91v-.419a1.953 1.953 0 0 0-.491-1.3c.49-2.778.046-5.057-1.283-6.591-1.311-1.516-3.4-2.234-6.053-2.089a7.927 7.927 0 0 0-4.494 1.641 3.16 3.16 0 0 0-2.709 3.458 14.689 14.689 0 0 0 .366 3.228 1.945 1.945 0 0 0-.9 1.657v.413a1.929 1.929 0 0 0 1.5 1.91 2.009 2.009 0 0 0 .26.035 6.163 6.163 0 0 0 1.458 2.815v.991a.8.8 0 0 0-.3.19l-1.559 1.558-3.078 1.187a4.032 4.032 0 0 0-2.573 3.925l.444 7.52a.812.812 0 0 0 .838.774.8.8 0 0 0 .56-.259.812.812 0 0 0 .214-.586l-.445-7.52a2.331 2.331 0 0 1 .008-.317l1.429 1.428a2.4 2.4 0 0 1 .707 1.709V538a.805.805 0 1 0 1.61 0v-4.739a4 4 0 0 0-1.179-2.847l-1.823-1.823a2.46 2.46 0 0 1 .793-.5l2.725-1.052 2.113 3.172a1.883 1.883 0 0 0 1.38.826 1.84 1.84 0 0 0 .678-.056 1.4 1.4 0 0 0 .6-.292c.408-.388 1.08-1.022 1.419-1.341l.042.039c.365.348 1.043 1 1.387 1.308l.031.026a1.924 1.924 0 0 0 .516.246 1.844 1.844 0 0 0 .728.07 1.877 1.877 0 0 0 1.378-.826l2.113-3.172.286.11 1.181-1.181.066-.065-1.3-.5-1.558-1.56a.813.813 0 0 0-.3-.189v-.99a6.136 6.136 0 0 0 1.455-2.819zm-7.2 8.362l-1.148 1.148a.281.281 0 0 1-.2.078h-.018a.266.266 0 0 1-.2-.12l-2.128-3.19.61-.61zm-3.1-10.716a4.425 4.425 0 0 0 1.189-1.254.806.806 0 0 0-1.362-.862 2.961 2.961 0 0 1-.4.5 1.886 1.886 0 0 0-.411-.211 13.02 13.02 0 0 1-.374-3.066c0-1.81 1.286-1.876 1.431-1.878a.8.8 0 0 0 .557-.224 6.28 6.28 0 0 1 3.691-1.388c2.141-.117 3.78.418 4.747 1.535.948 1.094 1.284 2.792.971 4.911-.043 0-.09.006-.142.011l-.469-1.129a.8.8 0 0 0-.947-.471c-.052.013-5.231 1.291-7.335-1.33a.8.8 0 1 0-1.255 1.008c2.238 2.792 6.517 2.359 8.306 2.029l.345.827a1.168 1.168 0 0 0 1.356.7 1.187 1.187 0 0 1 .331-.03.315.315 0 0 1 .22.311v.419a.331.331 0 0 1-.218.332.182.182 0 0 1-.067 0h-.1a1.35 1.35 0 0 0-1.31 1.1 4.556 4.556 0 0 1-8.962 0 1.336 1.336 0 0 0-1.407-1.1.249.249 0 0 1-.07-.006.332.332 0 0 1-.214-.332v-.413a.312.312 0 0 1 .216-.317.258.258 0 0 1 .265.1 1.03 1.03 0 0 0 1.416.22zm1.325 6.435a6.274 6.274 0 0 0 5.9 0v.588l-2.952 2.583-2.95-2.583zm7.208 1.587l.61.61-2.127 3.19a.266.266 0 0 1-.2.119.276.276 0 0 1-.217-.077l-1.148-1.149z" class="cls-3" data-name="Path 16" transform="translate(-1360.318 -507.485)"/>
            </g>
        </g>
    </g>
</svg>
