<svg xmlns="http://www.w3.org/2000/svg" width="64" height="64" viewBox="0 0 64 64">
    <defs>
        <style>
            .cls-1{fill:#76bb33}.cls-2{fill:none}.cls-3{fill:#fff}
        </style>
    </defs>
    <g id="Group_49" data-name="Group 49" transform="translate(-235 -869)">
        <circle id="Ellipse_3" cx="32" cy="32" r="32" class="cls-1" data-name="Ellipse 3" transform="translate(235 869)"/>
        <g id="Group_36" data-name="Group 36" transform="translate(251 885)">
            <path id="Rectangle_6" d="M0 0h32v32H0z" class="cls-2" data-name="Rectangle 6"/>
            <g id="Group_54" data-name="Group 54" transform="translate(0 3.2)">
                <path id="Path_24" d="M250.737 256.055a.83.83 0 0 0 1.128.194.81.81 0 0 0 .194-1.128c-.666-.944-.713-1.2-1.858-1.238h-.088a2.592 2.592 0 0 1-2.562-2.2 5.387 5.387 0 0 0 1.07-1.1 7.2 7.2 0 0 0 1.292-3.3.823.823 0 0 0 .116-.194 5.665 5.665 0 0 0 .442-2.209 5.211 5.211 0 0 0-5.01-5.379 4.669 4.669 0 0 0-2.04.47 3.741 3.741 0 0 0-.694.13c-2.318.67-3.631 3.459-2.927 6.218a6.214 6.214 0 0 0 .266.809.816.816 0 0 0 .11.189 6.573 6.573 0 0 0 2.358 4.358 2.591 2.591 0 0 1-2.563 2.2h-.07a3.719 3.719 0 0 0-3.6 3.731v3.847a.811.811 0 0 0 .81.81h10.683a.81.81 0 1 0 0-1.62h-9.874v-3.038a2.117 2.117 0 0 1 2.114-2.115h.07a4.164 4.164 0 0 0 1.266-.237l3.006 4.34a.81.81 0 0 0 1.332 0l3.006-4.34a4.126 4.126 0 0 0 1.254.236h.082c.685.011.289.005.687.566zm-6.722-14.573a3.071 3.071 0 0 1 1.445-.365 3.521 3.521 0 0 1 3.366 3.318 2.474 2.474 0 0 0-1.223-.321h-3.4a.617.617 0 0 1-.574-.387.922.922 0 0 0-1.749.114 4.307 4.307 0 0 1-.635 1.371 3.241 3.241 0 0 1 1.93-3.558 2.171 2.171 0 0 1 .5-.081.819.819 0 0 0 .34-.091zm-1 3.913a2.218 2.218 0 0 0 1.186.339h3.4a.879.879 0 0 1 .768.462 5.86 5.86 0 0 1-1.054 3.421 2.883 2.883 0 0 1-2.276 1.313 2.816 2.816 0 0 1-2.146-1.146 5.525 5.525 0 0 1-1.119-2.717 6.022 6.022 0 0 0 1.244-1.672zm1.009 7.02a3.932 3.932 0 0 0 2.03 0 4.241 4.241 0 0 0 1.258 2.014l-2.274 3.282-2.274-3.282a4.251 4.251 0 0 0 1.263-2.014z" class="cls-3" data-name="Path 24" transform="translate(-236.299 -239.497)"/>
                <path id="Path_25" d="M267.733 257.188a.588.588 0 0 0-.076 0 2.59 2.59 0 0 1-2.563-2.206 5.848 5.848 0 0 0 1.734-2.226.807.807 0 0 0 .362.23.815.815 0 0 0 .879-.276 7 7 0 0 0-.22-8.587 4.949 4.949 0 0 0-3.711-1.818h-.254a5.037 5.037 0 0 0-2.222-.437 5.454 5.454 0 0 0-4.166 2.254 7.752 7.752 0 0 0-1.52 4.968 7.5 7.5 0 0 0 .075.876 8 8 0 0 0 .645 2.243.806.806 0 0 0 .689.473.819.819 0 0 0 .738-.386l.015-.022a6.517 6.517 0 0 0 1.218 2.046 5.193 5.193 0 0 0 .721.661 2.593 2.593 0 0 1-2.563 2.2.694.694 0 0 0-.07 0 3.719 3.719 0 0 0-3.6 3.731v3.847a.811.811 0 0 0 .81.81h15.866a.811.811 0 0 0 .81-.81v-3.847a3.718 3.718 0 0 0-3.597-3.724zm-5.927-13.7a3.6 3.6 0 0 1 1.563.367.83.83 0 0 0 .39.084l.35-.015a3.354 3.354 0 0 1 2.512 1.254 5.168 5.168 0 0 1 1.19 3.212 5.545 5.545 0 0 1-.147 1.477l-.032-.069a5.956 5.956 0 0 0-3.058-2.992.808.808 0 0 0-1.073.466 4.631 4.631 0 0 1-.3.654 1.8 1.8 0 0 1-1.644.862h-.356a5.288 5.288 0 0 0-1.682.33 6.037 6.037 0 0 0-1.779 1.1 6.452 6.452 0 0 1-.083-.478 6.239 6.239 0 0 1-.059-.7 6.129 6.129 0 0 1 1.186-3.931 3.866 3.866 0 0 1 2.939-1.621zm-1.721 7.146a3.666 3.666 0 0 1 1.167-.227h.247a3.4 3.4 0 0 0 3.114-1.691l.023-.042a4.423 4.423 0 0 1 1.254 1.31v.01a5.619 5.619 0 0 1-1.163 3.1 2.812 2.812 0 0 1-2.144 1.146c-1.415 0-2.7-1.342-3.158-3.277a3.692 3.692 0 0 1 .66-.331zm1.487 5.09a3.906 3.906 0 0 0 2.027 0 4.244 4.244 0 0 0 1.864 2.463 3.022 3.022 0 0 1-5.754 0 4.242 4.242 0 0 0 1.863-2.466zm-6.109 8.235v-3.038a2.117 2.117 0 0 1 2.115-2.115.689.689 0 0 0 .069 0 4.433 4.433 0 0 0 .542-.051 4.641 4.641 0 0 0 8.793 0 4.236 4.236 0 0 0 .529.05h.082a2.117 2.117 0 0 1 2.114 2.115v3.038z" class="cls-3" data-name="Path 25" transform="translate(-239.808 -239.971)"/>
            </g>
        </g>
    </g>
</svg>
