<svg xmlns="http://www.w3.org/2000/svg" width="64" height="64" viewBox="0 0 64 64">
    <defs>
        <style>
            .cls-1{fill:#76bb33}.cls-2{fill:none}.cls-3{fill:#fff}
        </style>
    </defs>
    <g id="Group_27" data-name="Group 27" transform="translate(-235 -869)">
        <circle id="Ellipse_3" cx="32" cy="32" r="32" class="cls-1" data-name="Ellipse 3" transform="translate(235 869)"/>
        <g id="Group_36" data-name="Group 36" transform="translate(251 885)">
            <path id="Rectangle_6" d="M0 0h32v32H0z" class="cls-2" data-name="Rectangle 6"/>
            <g id="Group_41" data-name="Group 41" transform="translate(4)">
                <path id="Path_13" d="M758.272 441.127a.788.788 0 0 0-.607.027 13.8 13.8 0 0 0-1.641.961 6.141 6.141 0 0 1-2.6 1.189 21.2 21.2 0 0 1-.134-.631 4.212 4.212 0 0 0-.262-.93 1.241 1.241 0 0 0-.57-.642 1.061 1.061 0 0 0-.925.054c-1.028.481-1.267 1.812-1.46 2.882-.021.12-.043.241-.066.358a19.272 19.272 0 0 1-.029-2.1 6.461 6.461 0 0 0-.31-2.934 1.246 1.246 0 0 0-.79-.656 1.611 1.611 0 0 0-1.149.247 9.357 9.357 0 0 0-3.182 4.1 13.681 13.681 0 0 0-1.314 5.526.794.794 0 1 0 1.588 0 12.1 12.1 0 0 1 1.171-4.866 8.386 8.386 0 0 1 2.37-3.29 13.636 13.636 0 0 1 .027 1.831c-.04 1.668-.086 3.558 1.066 4.158a1.308 1.308 0 0 0 1.023.153 1.329 1.329 0 0 0 .746-.718 5.644 5.644 0 0 0 .411-1.529c.055-.3.114-.628.185-.915.175.748.474 1.5 1.412 1.5a6.746 6.746 0 0 0 3.661-1.457 12.743 12.743 0 0 1 1.449-.854.793.793 0 0 0-.065-1.466z" class="cls-3" data-name="Path 13" transform="translate(-738.082 -420.868)"/>
                <path id="Path_14" d="M759.437 416.417h-14.085a3.175 3.175 0 0 0-2.218.813l-5.474 5.474a2.991 2.991 0 0 0-.863 2.038v22.006a1.835 1.835 0 0 0 1.67 1.67h20.97a1.863 1.863 0 0 0 1.67-1.67v-28.66a1.836 1.836 0 0 0-1.67-1.671zm-20.9 30.407a.592.592 0 0 1-.146-.144v-21.33h4.8a2.548 2.548 0 0 0 2.543-2.544v-4.8h13.639a.61.61 0 0 1 .146.144v28.524a.583.583 0 0 1-.146.148zm5.6-24.018a.956.956 0 0 1-.951.951h-4.326l5.278-5.278z" class="cls-3" data-name="Path 14" transform="translate(-736.796 -416.417)"/>
            </g>
        </g>
    </g>
</svg>
