<svg xmlns="http://www.w3.org/2000/svg" width="64" height="64" viewBox="0 0 64 64">
    <defs>
        <style>
            .cls-1{fill:#76bb33}.cls-2{fill:none}.cls-3{fill:#fff}
        </style>
    </defs>
    <g id="Group_37" data-name="Group 37" transform="translate(-235 -869)">
        <circle id="Ellipse_3" cx="32" cy="32" r="32" class="cls-1" data-name="Ellipse 3" transform="translate(235 869)"/>
        <g id="Group_36" data-name="Group 36" transform="translate(251 885)">
            <path id="Rectangle_6" d="M0 0h32v32H0z" class="cls-2" data-name="Rectangle 6"/>
            <g id="Group_40" data-name="Group 40">
                <path id="Path_10" d="M1227.394 235.016l-9.347-1.311a2.208 2.208 0 0 0-2.47 1.872l-1.827 12.787a.781.781 0 0 0 1.241.738.774.774 0 0 0 .306-.515l1.667-11.671a3.378 3.378 0 0 0 1.416-.007 3.077 3.077 0 0 0 1.924-1.3l4.7.661a3.065 3.065 0 0 0 2.54 2.17l-2.71 18.527a.628.628 0 0 1-.7.542l-4.267-.629v.023a.777.777 0 0 0-.167 1.543l1.92.277 2.288.338a2.3 2.3 0 0 0 .317.022 2.215 2.215 0 0 0 2.161-1.892l2.878-19.682a2.2 2.2 0 0 0-1.87-2.493z" class="cls-3" data-name="Path 10" transform="translate(-1197.964 -233.686)"/>
                <path id="Path_11" d="M1222.807 251.263l.09-.022a3.752 3.752 0 0 0 2.678-4.58l-.014-.06a3.644 3.644 0 0 0-4.407-2.67c-4.864 1.144-3.293 8.396 1.653 7.332z" class="cls-3" data-name="Path 11" transform="translate(-1198.857 -235.714)"/>
                <path id="Path_12" d="M1216.345 254.313a3.513 3.513 0 0 0-2.084-2.278 2.894 2.894 0 0 0-2.752.533 6.946 6.946 0 0 0-.586.49c-.093.082-.188.168-.3.258l-2.594 2.116c-.17.134-.327.269-.478.4l.043-2.391c.744-.482.833-.726.958-1.772.036-.3.084-.7.169-1.247.177-1.139.344-2.289.507-3.52a.792.792 0 0 0-.289-.717.78.78 0 0 0-.766-.118c-1.3.5-5.1 2.7-6.123 4.088l-5.427 7.237a15.3 15.3 0 0 1-1.828.7l-.246.083a.784.784 0 0 0-.53.74v8.448a.786.786 0 0 0 .768.782c.348.007.7.01 1.057.01 1.077 0 2.171-.025 3.239-.05h.169c.525-.012 1.045-.024 1.558-.032 3.213-.05 3.83-.525 5.143-1.887.363-.378.816-.848 1.46-1.41a18.728 18.728 0 0 0 1.453-1.487 23.141 23.141 0 0 1 3.228-3.062c.364-.276.671-.56.97-.834.208-.194.421-.391.66-.588.183-.154.37-.3.551-.443l.056-.044c1.209-.951 2.577-2.024 2.014-4.005zm-2.974 2.763c-.213.166-.43.337-.645.517-.259.216-.492.43-.72.64-.27.25-.55.507-.858.742a24.767 24.767 0 0 0-3.441 3.259 17.516 17.516 0 0 1-1.323 1.358c-.686.6-1.162 1.093-1.555 1.5-1.064 1.1-1.317 1.364-4.042 1.407-.574.01-1.154.022-1.77.037-1.133.026-2.3.054-3.434.047v-7.106a8.58 8.58 0 0 0 2.047-.868.794.794 0 0 0 .148-.15l4.134-5.474 1.4-1.9a17.351 17.351 0 0 1 4.17-2.946c-.1.693-.2 1.368-.3 2.039-.092.591-.142 1.015-.181 1.34a3.581 3.581 0 0 1-.07.485 2.669 2.669 0 0 1-.184.122c-.1.065-.22.142-.362.24a.785.785 0 0 0-.341.634l-.079 4.452a.781.781 0 0 0 1.163.7 6.717 6.717 0 0 0 1.266-.966c.189-.171.388-.349.618-.532l2.606-2.128c.136-.111.25-.214.363-.315a5.837 5.837 0 0 1 .472-.4 1.39 1.39 0 0 1 1.286-.3 1.93 1.93 0 0 1 1.106 1.23c.249.889-.181 1.323-1.474 2.336z" class="cls-3" data-name="Path 12" transform="translate(-1194.02 -236.153)"/>
            </g>
        </g>
    </g>
</svg>
