<svg xmlns="http://www.w3.org/2000/svg" width="64" height="64" viewBox="0 0 64 64">
    <defs>
        <style>
            .cls-1{fill:#76bb33}.cls-2{fill:none}.cls-3{fill:#fff}
        </style>
    </defs>
    <g id="Group_76" data-name="Group 76" transform="translate(-235 -869)">
        <circle id="Ellipse_3" cx="32" cy="32" r="32" class="cls-1" data-name="Ellipse 3" transform="translate(235 869)"/>
        <g id="Group_36" data-name="Group 36" transform="translate(251 885)">
            <path id="Rectangle_6" d="M0 0h32v32H0z" class="cls-2" data-name="Rectangle 6"/>
            <g id="Group_78" data-name="Group 78" transform="translate(2.4)">
                <path id="Path_34" d="M435.685 73.353l-.159-3.206-1.708-.875a25.505 25.505 0 0 0-22.344 0l-1.7.873-.092 1.877c-.026.538-.058 1.114-.091 1.7l-.017.288c-.282 4.945-.574 10.058 1.318 14.434a18 18 0 0 0 4.4 6.253 15.8 15.8 0 0 0 6.46 3.5l.9.245.9-.244a16.055 16.055 0 0 0 6.667-3.547 16.54 16.54 0 0 0 4.2-6.23c1.81-4.565 1.534-9.905 1.266-15.068zm-2.749 14.482a14.975 14.975 0 0 1-3.793 5.634 14.471 14.471 0 0 1-6.01 3.191l-.483.13-.482-.131a14.21 14.21 0 0 1-5.81-3.151 16.367 16.367 0 0 1-4-5.7c-1.747-4.038-1.466-8.958-1.192-13.717l.006-.1c.035-.622.07-1.241.1-1.893l.046-.958.88-.451a23.95 23.95 0 0 1 20.9 0l.883.455.114 2.294c.262 4.99.53 10.153-1.158 14.396z" class="cls-3" data-name="Path 34" transform="translate(-409.367 -66.696)"/>
                <path id="Path_35" d="M421.011 77.843a7.655 7.655 0 0 0-2.77 0c-1.552.291-2.442 1.049-2.442 2.078v8.014c0 .969.9 1.674 2.459 1.934a8.541 8.541 0 0 0 2.738 0c1.563-.26 2.459-.966 2.459-1.934v-8.014c-.001-1.029-.891-1.786-2.444-2.078zm-.293 1.569c.779.146 1.134.366 1.134.509v.847a6.483 6.483 0 0 1-1.454.37 5.491 5.491 0 0 1-1.941-.1.8.8 0 0 0-.442 1.536l.077.018a7.049 7.049 0 0 0 2.5.134 7.8 7.8 0 0 0 1.259-.273v.641a6.4 6.4 0 0 1-1.454.37 5.466 5.466 0 0 1-1.945-.1.8.8 0 0 0-.883 1.183.81.81 0 0 0 .522.374 7.087 7.087 0 0 0 2.5.134 7.8 7.8 0 0 0 1.259-.272v.786a6.356 6.356 0 0 1-1.454.37 5.527 5.527 0 0 1-1.941-.1.8.8 0 0 0-.608.07.8.8 0 0 0 .169 1.466.684.684 0 0 0 .074.018 7.035 7.035 0 0 0 2.5.134 7.693 7.693 0 0 0 1.259-.272v.676c-.019.05-.265.222-1.118.364a7.182 7.182 0 0 1-2.214 0c-.854-.141-1.1-.314-1.118-.358v-8.016c0-.142.354-.362 1.131-.509a6.3 6.3 0 0 1 2.182 0z" class="cls-3" data-name="Path 35" transform="translate(-410.653 -68.9)"/>
                <path id="Path_36" d="M432.134 80.944a7.691 7.691 0 0 0-2.77 0c-1.553.292-2.442 1.05-2.442 2.079v5.533c0 .969.9 1.674 2.458 1.934a8.419 8.419 0 0 0 1.362.11h.022a8.522 8.522 0 0 0 1.355-.108c1.562-.262 2.458-.966 2.458-1.935v-5.534c.001-1.03-.889-1.787-2.443-2.079zm-2.56 3.038a.8.8 0 1 0-.36 1.558 7.081 7.081 0 0 0 2.5.134 7.807 7.807 0 0 0 1.26-.273v.786a6.4 6.4 0 0 1-1.455.37 5.488 5.488 0 0 1-1.94-.1.8.8 0 1 0-.436 1.537c.026.007.052.014.071.017a7.086 7.086 0 0 0 2.5.134 7.759 7.759 0 0 0 1.26-.272v.676c-.019.05-.265.222-1.118.364a7.237 7.237 0 0 1-2.214 0c-.831-.132-1.087-.3-1.117-.35v-5.54c0-.142.354-.363 1.131-.509a6.308 6.308 0 0 1 2.182 0c.779.146 1.134.366 1.134.509v.692a6.446 6.446 0 0 1-1.455.37 5.485 5.485 0 0 1-1.943-.104z" class="cls-3" data-name="Path 36" transform="translate(-412.878 -69.521)"/>
            </g>
        </g>
    </g>
</svg>
