<svg xmlns="http://www.w3.org/2000/svg" width="64" height="64" viewBox="0 0 64 64">
    <defs>
        <style>
            .cls-1{fill:#76bb33}.cls-2{fill:none}.cls-3{fill:#fff}
        </style>
    </defs>
    <g id="Group_38" data-name="Group 38" transform="translate(-235 -869)">
        <circle id="Ellipse_3" cx="32" cy="32" r="32" class="cls-1" data-name="Ellipse 3" transform="translate(235 869)"/>
        <g id="Group_36" data-name="Group 36" transform="translate(251 885)">
            <path id="Rectangle_6" d="M0 0h32v32H0z" class="cls-2" data-name="Rectangle 6"/>
            <g id="Group_39" data-name="Group 39" transform="translate(2.4)">
                <path id="Path_8" d="M435.685 72.26l-.159-3.206-1.708-.875a25.508 25.508 0 0 0-22.344 0l-1.7.873-.092 1.877c-.026.539-.058 1.114-.091 1.7l-.017.288c-.282 4.945-.574 10.058 1.318 14.433a17.982 17.982 0 0 0 4.4 6.253 15.815 15.815 0 0 0 6.46 3.5l.9.244.9-.243a16.073 16.073 0 0 0 6.667-3.547 16.552 16.552 0 0 0 4.2-6.23c1.81-4.564 1.534-9.903 1.266-15.067zm-2.749 14.482a14.984 14.984 0 0 1-3.793 5.635 14.47 14.47 0 0 1-6.01 3.19l-.483.131-.482-.131a14.228 14.228 0 0 1-5.81-3.151 16.382 16.382 0 0 1-4-5.7c-1.747-4.038-1.466-8.958-1.192-13.717l.006-.1c.035-.622.07-1.241.1-1.893l.046-.959.88-.45a23.947 23.947 0 0 1 20.9 0l.883.455.114 2.294c.262 4.989.53 10.154-1.158 14.396z" class="cls-3" data-name="Path 8" transform="translate(-409.367 -65.604)"/>
                <path id="Path_9" d="M426.851 76.462a9.238 9.238 0 0 0-3.316 0c-1.594.3-2.839 1.078-2.839 2.367V88.6c0 1.207 1.253 1.924 2.856 2.191a10.32 10.32 0 0 0 3.283 0c1.6-.267 2.856-.984 2.856-2.191v-9.771c0-1.29-1.245-2.067-2.84-2.367zm1.228 3.516a8.04 8.04 0 0 1-1.923.5 6.922 6.922 0 0 1-2.434-.13.8.8 0 1 0-.443 1.544.709.709 0 0 0 .084.019 8.481 8.481 0 0 0 2.989.161 9.346 9.346 0 0 0 1.728-.4v1.138a8.04 8.04 0 0 1-1.923.5 6.922 6.922 0 0 1-2.434-.13.8.8 0 1 0-.4 1.558l.037.008a8.481 8.481 0 0 0 2.989.161 9.345 9.345 0 0 0 1.728-.4v1.309a7.966 7.966 0 0 1-1.923.5 6.9 6.9 0 0 1-2.434-.13.8.8 0 1 0-.443 1.544c.027.008.055.014.084.02a8.461 8.461 0 0 0 2.989.16 9.28 9.28 0 0 0 1.728-.4v1.065c0 .249-.661.466-1.506.606a8.978 8.978 0 0 1-2.754 0c-.846-.14-1.5-.357-1.5-.606v-9.746c0-.354.666-.628 1.52-.788a7.858 7.858 0 0 1 2.722 0c.854.16 1.522.435 1.522.788z" class="cls-3" data-name="Path 9" transform="translate(-411.633 -67.745)"/>
            </g>
        </g>
    </g>
</svg>
